<?xml version="1.0" encoding="utf-8"?>
<!-- Generator: Adobe Illustrator 19.0.0, SVG Export Plug-In . SVG Version: 6.00 Build 0)  -->
<svg version="1.1" id="图层_1" xmlns="http://www.w3.org/2000/svg" xmlns:xlink="http://www.w3.org/1999/xlink" x="0px" y="0px"
	 viewBox="0 0 64 64" style="enable-background:new 0 0 64 64;" xml:space="preserve">
<style type="text/css">
	.st0{fill:#E99413;}
</style>
<path id="XMLID_13_" class="st0" d="M31.7,36.1l-0.4,0.6c0.5-0.6,1.7,0.1,2.3,0L34,36C33.3,36,32.1,35.6,31.7,36.1z M32,35.6
	l0.1-0.2c0.5-0.5,1.5,0,2.3,0l0.4-0.7c-0.7,0-1.9-0.5-2.4,0.1l-0.3,0.4c-0.1,0-0.1,0-0.2,0c-1-0.1-1.8,0.3-1.9,1
	c0,0.4,0.3,0.9,0.8,1.1l0.3-0.4c-0.2-0.2-0.4-0.4-0.4-0.6C30.9,35.8,31.4,35.5,32,35.6z M29.8,34.7c0.4-0.6,1.7-0.2,2.8-0.1l0.2-0.3
	c0.6-0.9,3.4,0.5,4.2-0.2l-1.8,3.1c-0.4,0.6-1.8,0.2-3,0L32,37.5l0,0c-0.6,0.9-3.2-0.5-3.9,0.2L29.8,34.7z M33.6,39.3l0-0.8h0.2
	l0,0.5l0,0.2c0,0,0-0.1,0.1-0.2l0.3-0.5h0.2l0,0.5l0,0.2l0.1-0.2l0.3-0.5h0.1l-0.5,0.8h-0.2l0-0.5l0-0.1l-0.4,0.6H33.6z M32.7,38.9
	c0,0.1,0,0.2,0,0.2c0,0.1,0.1,0.1,0.2,0.1c0.1,0,0.1,0,0.2-0.1c0.1-0.1,0.1-0.1,0.1-0.2c0-0.1,0-0.2,0-0.2c0-0.1-0.1-0.1-0.2-0.1
	c-0.1,0-0.1,0-0.2,0.1C32.8,38.7,32.8,38.8,32.7,38.9z M32.6,38.9c0-0.2,0.1-0.3,0.2-0.3c0.1-0.1,0.2-0.1,0.3-0.1
	c0.1,0,0.2,0,0.3,0.1c0.1,0.1,0.1,0.2,0,0.3c0,0.1-0.1,0.2-0.1,0.2c-0.1,0.1-0.1,0.1-0.2,0.1c-0.1,0-0.2,0-0.2,0
	c-0.1,0-0.2,0-0.3-0.1C32.5,39.1,32.5,39,32.6,38.9z M31.6,39.3l0.3-1.1h0.2L32,38.5c0.1-0.1,0.2-0.1,0.3-0.1c0.1,0,0.1,0,0.2,0
	c0,0,0.1,0.1,0.1,0.1c0,0,0,0.1,0,0.2l-0.2,0.5h-0.2l0.2-0.5c0-0.1,0-0.1,0-0.2c0,0-0.1,0-0.1,0c0,0-0.1,0-0.1,0c0,0-0.1,0-0.1,0.1
	c0,0-0.1,0.1-0.1,0.2l-0.1,0.4H31.6z M30.6,38.9l0.2,0c0,0.1,0,0.1,0,0.1c0,0,0,0.1,0.1,0.1c0,0,0.1,0,0.2,0c0.1,0,0.1,0,0.2,0
	c0.1,0,0.1,0,0.1-0.1c0,0,0.1-0.1,0.1-0.1c0,0,0-0.1,0-0.1c0,0,0,0-0.1-0.1c0,0-0.1,0-0.2-0.1c-0.1,0-0.2,0-0.2-0.1
	c-0.1,0-0.1-0.1-0.1-0.1c0,0,0-0.1,0-0.1c0-0.1,0-0.1,0.1-0.2c0,0,0.1-0.1,0.2-0.1c0.1,0,0.2,0,0.2,0c0.1,0,0.2,0,0.2,0
	c0.1,0,0.1,0.1,0.1,0.1c0,0.1,0,0.1,0,0.2l-0.2,0c0-0.1,0-0.1,0-0.2c0,0-0.1-0.1-0.2-0.1c-0.1,0-0.2,0-0.2,0c-0.1,0-0.1,0.1-0.1,0.1
	c0,0,0,0.1,0,0.1c0,0,0.1,0.1,0.2,0.1c0.1,0,0.2,0.1,0.3,0.1c0.1,0,0.1,0.1,0.1,0.1c0,0,0,0.1,0,0.2c0,0.1-0.1,0.1-0.1,0.2
	c-0.1,0.1-0.1,0.1-0.2,0.1c-0.1,0-0.2,0-0.3,0c-0.1,0-0.2,0-0.3,0c-0.1,0-0.1-0.1-0.1-0.1C30.6,39,30.6,39,30.6,38.9z M30.1,38.4
	h0.3l0,0.1c0-0.1,0.1-0.1,0.1-0.1c0,0,0.1,0,0.1,0c0.1,0,0.1,0,0.2,0l-0.2,0.2c0,0-0.1,0-0.1,0c0,0-0.1,0-0.1,0.1
	c0,0-0.1,0.1-0.1,0.3l-0.1,0.3h-0.3L30.1,38.4z M29.4,38.9c-0.1,0-0.1,0-0.2,0c-0.1,0-0.1,0-0.1,0c0,0,0,0,0,0.1c0,0,0,0,0,0.1
	c0,0,0,0,0.1,0c0,0,0.1,0,0.1,0c0,0,0.1,0,0.1-0.1C29.4,39,29.4,39,29.4,38.9L29.4,38.9z M29.2,38.7h-0.3c0-0.1,0.1-0.1,0.1-0.1
	c0,0,0.1-0.1,0.1-0.1c0,0,0.1,0,0.1,0c0.1,0,0.1,0,0.2,0c0.1,0,0.2,0,0.2,0c0.1,0,0.1,0,0.1,0.1c0,0,0,0.1,0,0.1c0,0,0,0.1,0,0.1
	l-0.1,0.4c0,0,0,0.1,0,0.1c0,0,0,0,0,0.1h-0.3c0,0,0-0.1,0-0.1c-0.1,0-0.1,0.1-0.2,0.1c-0.1,0-0.1,0-0.2,0c-0.1,0-0.2,0-0.2-0.1
	c0,0-0.1-0.1,0-0.2c0-0.1,0.1-0.1,0.1-0.2c0.1,0,0.1-0.1,0.2-0.1c0.1,0,0.2,0,0.3,0c0,0,0.1,0,0.1,0c0,0,0-0.1,0-0.1c0,0,0,0-0.1,0
	C29.3,38.6,29.3,38.6,29.2,38.7C29.2,38.7,29.2,38.7,29.2,38.7z M28.3,38.9l0.4,0c0,0.1-0.1,0.2-0.2,0.2c-0.1,0.1-0.1,0.1-0.2,0.1
	c-0.1,0-0.2,0-0.3,0c-0.1,0-0.2,0-0.3-0.1c-0.1,0-0.1-0.1-0.2-0.2c0-0.1,0-0.2,0-0.3c0.1-0.2,0.1-0.3,0.3-0.4
	c0.1-0.1,0.3-0.2,0.5-0.2c0.2,0,0.3,0,0.3,0.1c0.1,0.1,0.1,0.1,0.1,0.3l-0.4,0c0,0,0,0,0,0c0,0,0,0-0.1-0.1c0,0-0.1,0-0.1,0
	c-0.1,0-0.2,0-0.2,0.1c0,0-0.1,0.1-0.1,0.2c0,0.1,0,0.2,0,0.3c0,0,0.1,0.1,0.2,0.1C28.1,39,28.2,39,28.3,38.9
	C28.3,38.9,28.3,38.9,28.3,38.9z"/>
</svg>
